<svg width="100%" height="384" viewBox="0 0 1440 384" fill="none" xmlns="http://www.w3.org/2000/svg" preserveAspectRatio="none"><g clip-path="url(#clip0)"><path d="M1419.8 0V459.7" stroke="white" stroke-width="0.6568" stroke-miterlimit="10"></path><path d="M1396.2 0V459.7" stroke="white" stroke-width="0.8918" stroke-miterlimit="10"></path><path d="M1372.6 0V459.7" stroke="white" stroke-width="1.1269" stroke-miterlimit="10"></path><path d="M1349 0V459.7" stroke="white" stroke-width="1.3619" stroke-miterlimit="10"></path><path d="M1325.3 0V459.7" stroke="white" stroke-width="1.597" stroke-miterlimit="10"></path><path d="M1301.7 0V459.7" stroke="white" stroke-width="1.832" stroke-miterlimit="10"></path><path d="M1278.1 0V459.7" stroke="white" stroke-width="2.0671" stroke-miterlimit="10"></path><path d="M1254.5 0V459.7" stroke="white" stroke-width="2.3022" stroke-miterlimit="10"></path><path d="M1230.9 0V459.7" stroke="white" stroke-width="2.5372" stroke-miterlimit="10"></path><path d="M1207.3 0V459.7" stroke="white" stroke-width="2.7723" stroke-miterlimit="10"></path><path d="M1183.7 0V459.7" stroke="white" stroke-width="3.0073" stroke-miterlimit="10"></path><path d="M1160.1 0V459.7" stroke="white" stroke-width="3.2424" stroke-miterlimit="10"></path><path d="M1136.5 0V459.7" stroke="white" stroke-width="3.4774" stroke-miterlimit="10"></path><path d="M1112.9 0V459.7" stroke="white" stroke-width="3.7125" stroke-miterlimit="10"></path><path d="M1089.3 0V459.7" stroke="white" stroke-width="3.9475" stroke-miterlimit="10"></path><path d="M1065.7 0V459.7" stroke="white" stroke-width="4.1826" stroke-miterlimit="10"></path><path d="M1042.1 0V459.7" stroke="white" stroke-width="4.4177" stroke-miterlimit="10"></path><path d="M1018.5 0V459.7" stroke="white" stroke-width="4.6527" stroke-miterlimit="10"></path><path d="M994.9 0V459.7" stroke="white" stroke-width="4.8878" stroke-miterlimit="10"></path><path d="M971.2 0V459.7" stroke="white" stroke-width="5.1228" stroke-miterlimit="10"></path><path d="M947.6 0V459.7" stroke="white" stroke-width="5.3579" stroke-miterlimit="10"></path><path d="M924 0V459.7" stroke="white" stroke-width="5.5929" stroke-miterlimit="10"></path><path d="M900.4 0V459.7" stroke="white" stroke-width="5.828" stroke-miterlimit="10"></path><path d="M876.8 0V459.7" stroke="white" stroke-width="6.063" stroke-miterlimit="10"></path><path d="M853.2 0V459.7" stroke="white" stroke-width="6.2981" stroke-miterlimit="10"></path><path d="M829.6 0V459.7" stroke="white" stroke-width="6.5332" stroke-miterlimit="10"></path><path d="M806 0V459.7" stroke="white" stroke-width="6.7682" stroke-miterlimit="10"></path><path d="M782.4 0V459.7" stroke="white" stroke-width="7.0033" stroke-miterlimit="10"></path><path d="M758.8 0V459.7" stroke="white" stroke-width="7.2383" stroke-miterlimit="10"></path><path d="M735.2 0V459.7" stroke="white" stroke-width="7.4734" stroke-miterlimit="10"></path><path d="M711.6 0V459.7" stroke="white" stroke-width="7.7084" stroke-miterlimit="10"></path><path d="M688 0V459.7" stroke="white" stroke-width="7.9435" stroke-miterlimit="10"></path><path d="M664.4 0V459.7" stroke="white" stroke-width="8.1785" stroke-miterlimit="10"></path><path d="M640.8 0V459.7" stroke="white" stroke-width="8.4136" stroke-miterlimit="10"></path><path d="M617.2 0V459.7" stroke="white" stroke-width="8.6487" stroke-miterlimit="10"></path><path d="M593.5 0V459.7" stroke="white" stroke-width="8.8837" stroke-miterlimit="10"></path><path d="M569.9 0V459.7" stroke="white" stroke-width="9.1188" stroke-miterlimit="10"></path><path d="M546.3 0V459.7" stroke="white" stroke-width="9.3538" stroke-miterlimit="10"></path><path d="M522.7 0V459.7" stroke="white" stroke-width="9.5889" stroke-miterlimit="10"></path><path d="M499.1 0V459.7" stroke="white" stroke-width="9.8239" stroke-miterlimit="10"></path><path d="M475.5 0V459.7" stroke="white" stroke-width="10.059" stroke-miterlimit="10"></path><path d="M451.9 0V459.7" stroke="white" stroke-width="10.294" stroke-miterlimit="10"></path><path d="M428.3 0V459.7" stroke="white" stroke-width="10.5291" stroke-miterlimit="10"></path><path d="M404.7 0V459.7" stroke="white" stroke-width="10.7642" stroke-miterlimit="10"></path><path d="M381.1 0V459.7" stroke="white" stroke-width="10.9992" stroke-miterlimit="10"></path><path d="M357.5 0V459.7" stroke="white" stroke-width="11.2343" stroke-miterlimit="10"></path><path d="M333.9 0V459.7" stroke="white" stroke-width="11.4693" stroke-miterlimit="10"></path><path d="M310.3 0V459.7" stroke="white" stroke-width="11.7044" stroke-miterlimit="10"></path><path d="M286.7 0V459.7" stroke="white" stroke-width="11.9394" stroke-miterlimit="10"></path><path d="M263.1 0V459.7" stroke="white" stroke-width="12.1745" stroke-miterlimit="10"></path><path d="M239.4 0V459.7" stroke="white" stroke-width="12.4095" stroke-miterlimit="10"></path><path d="M215.8 0V459.7" stroke="white" stroke-width="12.6446" stroke-miterlimit="10"></path><path d="M192.2 0V459.7" stroke="white" stroke-width="12.8797" stroke-miterlimit="10"></path><path d="M168.6 0V459.7" stroke="white" stroke-width="13.1147" stroke-miterlimit="10"></path><path d="M145 0V459.7" stroke="white" stroke-width="13.3498" stroke-miterlimit="10"></path><path d="M121.4 0V459.7" stroke="white" stroke-width="13.5848" stroke-miterlimit="10"></path><path d="M97.8 0V459.7" stroke="white" stroke-width="13.8199" stroke-miterlimit="10"></path><path d="M74.2001 0V459.7" stroke="white" stroke-width="14.0549" stroke-miterlimit="10"></path><path d="M50.6 0V459.7" stroke="white" stroke-width="14.29" stroke-miterlimit="10"></path><path d="M27 0V459.7" stroke="white" stroke-width="14.525" stroke-miterlimit="10"></path><path d="M3.40002 0V459.7" stroke="white" stroke-width="14.7601" stroke-miterlimit="10"></path></g><defs><clipPath id="clip0"><rect width="1447.6" height="459.7" fill="white" transform="translate(-4)"></rect></clipPath></defs></svg>