<svg width="1694" height="700" viewBox="0 0 1694 700" fill="none" xmlns="http://www.w3.org/2000/svg">
<path d="M669.334 332.71C688.969 332.71 697.725 345.271 700.644 356.523L728.239 346.579C722.932 326.168 703.828 304.71 669.069 304.71C631.922 304.71 603 332.972 603 372.224C603 410.953 631.922 440 669.865 440C703.828 440 723.197 418.28 729.3 398.393L702.236 388.71C699.317 398.393 690.03 412.262 669.865 412.262C650.495 412.262 633.779 397.869 633.779 372.224C633.779 346.579 650.495 332.71 669.334 332.71Z" fill="black"/>
<path d="M806.874 412.785C788.035 412.785 770.788 398.654 770.788 372.224C770.788 345.794 788.035 332.187 806.874 332.187C825.978 332.187 842.959 345.794 842.959 372.224C842.959 398.916 825.978 412.785 806.874 412.785ZM806.874 304.71C768.4 304.71 740.009 333.234 740.009 372.224C740.009 411.477 768.4 440 806.874 440C845.613 440 874.004 411.477 874.004 372.224C874.004 333.234 845.613 304.71 806.874 304.71Z" fill="black"/>
<path d="M926.128 362.542C926.128 345.794 935.415 332.449 952.927 332.449C972.297 332.449 979.461 345.009 979.461 360.71V436.075H1010.24V355.477C1010.24 327.477 995.115 304.972 963.54 304.972C949.212 304.972 933.823 310.991 925.332 325.645V308.636H895.349V436.075H926.128V362.542Z" fill="black"/>
<path d="M1061.13 371.963C1061.13 347.626 1075.99 332.187 1096.15 332.187C1116.32 332.187 1130.12 347.364 1130.12 371.701C1130.12 396.037 1116.06 412.523 1095.89 412.523C1074.93 412.523 1061.13 396.299 1061.13 371.963ZM1159.84 246.617H1129.85V323.551C1125.87 315.439 1114.46 305.234 1091.91 305.234C1055.56 305.234 1030.35 335.327 1030.35 371.963C1030.35 410.43 1055.29 439.215 1092.44 439.215C1110.75 439.215 1124.28 430.318 1130.38 419.589C1130.38 424.822 1131.18 433.196 1131.71 436.075H1161.16C1160.9 433.981 1159.84 424.299 1159.84 412.785V246.617Z" fill="black"/>
<path d="M1273.43 421.944C1273.43 427.178 1273.96 433.196 1274.49 436.075H1303.94C1303.41 431.364 1302.62 423.252 1302.62 412.785V308.636H1271.84V384C1271.84 400.748 1262.55 412.523 1244.77 412.523C1226.2 412.523 1218.77 399.178 1218.77 383.477V308.636H1187.99V388.972C1187.99 417.234 1206.04 439.738 1236.81 439.738C1251.94 439.738 1267.06 433.458 1273.43 421.944Z" fill="black"/>
<path d="M1362.8 436.075V308.636H1332.29V436.075H1362.8ZM1327.51 263.888C1327.51 274.878 1336.53 283.514 1347.41 283.514C1358.56 283.514 1367.58 274.878 1367.58 263.888C1367.58 252.897 1358.56 244 1347.41 244C1336.53 244 1327.51 252.897 1327.51 263.888Z" fill="black"/>
<path d="M1432.94 269.645H1405.08V288.748C1405.08 300 1398.97 308.636 1385.18 308.636H1378.54V335.589H1402.42V399.701C1402.42 423.514 1417.28 437.645 1441.16 437.645C1452.31 437.645 1458.14 435.551 1460 434.766V409.645C1458.67 409.907 1453.63 410.692 1449.39 410.692C1437.98 410.692 1432.94 405.981 1432.94 394.729V335.589H1459.73V308.636H1432.94V269.645Z" fill="black"/>
<path opacity="0.4" d="M443.719 427.63L494.361 339.761L445.713 339.761L395.072 427.63L443.719 427.63Z" fill="black"/>
<path opacity="0.7" d="M282.16 432.284L311.268 482.795L333.917 522.088L358.24 479.881L306.484 390.081L282.16 432.284Z" fill="black"/>
<path d="M363.288 476.964L521.457 476.964L471.74 390.691L447.095 433.457L388.343 433.418L361.179 387.154L311.532 387.154L363.288 476.964Z" fill="black"/>
<path opacity="0.4" d="M363.288 482.791L338.957 525.006L497.126 525.006L521.457 482.791L363.288 482.791Z" fill="black"/>
<path opacity="0.7" d="M394.052 336.852L366.224 384.242L390.008 424.747L440.666 336.849L361.581 199.621L311.864 285.894L364.134 285.894L394.052 336.852Z" fill="black"/>
<path d="M494.361 333.934L415.272 196.698L366.624 196.698L445.734 333.934L494.361 333.934Z" fill="black"/>
<path d="M385.585 333.934L360.801 291.719L256.53 291.719L280.858 333.934L385.585 333.934Z" fill="black"/>
<path opacity="0.7" d="M251.487 294.637L172.398 431.865L196.704 474.042L275.793 336.814L251.487 294.637Z" fill="black"/>
<path opacity="0.4" d="M304.797 381.329L361.174 381.329L385.58 339.765L280.857 339.765L201.748 476.968L301.182 476.968L275.434 432.288L304.797 381.329Z" fill="black"/>
</svg>
