<?xml version="1.0" encoding="utf-8"?>
<svg version="1.1" xmlns:cc="http://creativecommons.org/ns#" xmlns:dc="http://purl.org/dc/elements/1.1/" xmlns:rdf="http://www.w3.org/1999/02/22-rdf-syntax-ns#" xmlns="http://www.w3.org/2000/svg" xmlns:xlink="http://www.w3.org/1999/xlink" x="0px" y="0px" viewBox="0 0 1024 768" xml:space="preserve">
 <path d="m353.43584 383.36761v22.74113a29.56218 29.56218 0 0 1 -49.93274 21.42411l10.90074-11.471a13.76011 13.76011 0 0 0 22.72141 -6.24239 29.60344 29.60344 0 1 1 16.31059 -26.45181zm-15.79466 0a13.75863 13.75863 0 1 0 -13.75863 13.74744 13.76867 13.76867 0 0 0 13.75863 -13.74744zm83.718-29.46855v59.35815h-15.81493l0.08421-2.44643a30.133 30.133 0 0 1 -25.283 0.87518 29.80537 29.80537 0 0 1 -9.5512 -6.43107 30.20652 30.20652 0 0 1 -6.43213 -9.55227 30.06 30.06 0 0 1 6.43213 -32.95751 30.19732 30.19732 0 0 1 9.5512 -6.4316 30.117 30.117 0 0 1 25.29363 0.8853l-0.09487-3.29975zm-16.996 37.2273a14.23184 14.23184 0 0 0 -12.31423 -21.35962 14.23721 14.23721 0 1 0 12.31423 21.35962zm40.4828-21.834v12.49331a16.77888 16.77888 0 0 0 16.76364 16.7631v15.81493a32.55478 32.55478 0 0 1 -32.57855 -32.578v-40.8655l15.81491-5.27129v18.88281h16.76364v14.76066zm26.87661 35.61393a29.7011 29.7011 0 1 1 50.70238 -21.00145v7.64363h-41.9102a14.41994 14.41994 0 0 0 22.7001 2.25668l11.11286 10.501a29.72435 29.72435 0 0 1 -42.60518 0.60015zm33.22134-28.64561a14.40621 14.40621 0 0 0 -24.42912 0zm58.677 7.82325-9.15146 29.17326h-13.14787l-20.25367-58.72549h16.58456l10.259 30.53293 9.3412-30.53293h12.83123l9.52028 30.57557 10.19506-30.57557h16.58455l-20.25366 58.72549h-13.35782zm101.4314-30.18489v59.35815h-15.81496l0.08421-2.44643a30.133 30.133 0 0 1 -25.283 0.87518 29.80526 29.80526 0 0 1 -9.5512 -6.43107 30.20638 30.20638 0 0 1 -6.43214 -9.55227 30.05993 30.05993 0 0 1 6.43214 -32.95751 30.19709 30.19709 0 0 1 9.5512 -6.4316 30.117 30.117 0 0 1 25.29362 0.8853l-0.09487-3.29975zm-16.996 37.2273a14.23184 14.23184 0 0 0 -12.31433 -21.3596 14.23721 14.23721 0 1 0 12.31423 21.35962zm44.78085 16.511-23.49-53.10564h17.38511l14.21271 33.27466 13.21071-33.27464h16.93206l-32.0722 79.60062h-16.79565zm33.28414-3.99112a9.64293 9.64293 0 0 1 9.75162 -9.59057 9.58976 9.58976 0 0 1 0 19.17951 9.64156 9.64156 0 0 1 -9.75169 -9.58892zm66.03768-48.96688v14.76012h-16.76371v43.81773h-15.81491v-58.6306a32.55455 32.55455 0 0 1 32.57855 -32.57854v15.81495a16.779 16.779 0 0 0 -16.76364 16.76363v0.05277zm91.30564 25.47218v33.10567h-15.81498v-33.10565a9.54161 9.54161 0 1 0 -19.08322 0v33.10567h-15.81491v-33.10567a9.54161 9.54161 0 1 0 -19.08321 0v33.10567h-15.81491v-59.35815h15.81491v2.75183a25.389 25.389 0 0 1 26.99067 5.10286 25.35194 25.35194 0 0 1 42.80558 18.39779zm-742.92921 10.27473l120.314-69.46337 0.1748 22.20087-120.4888 69.56393zm86.82394-66.69892-0.1748-22.77533-86.64914 50.02689v22.87624zm0.95691 54.89135l-19.31388 11.15081 65.55806 37.84965v-22.30142zm46.24418 10.12791v-36.82685l-31.89317 18.41333zm-13.71082 47.52773l-66.19834-38.21932-19.31384 11.151 46.87616 27.06391-14.35109 8.28562-46.87616-27.064-19.63658 11.337 66.19806 38.21947z"/>
</svg>