<svg width="92" height="40" viewBox="0 0 92 40" fill="none" xmlns="http://www.w3.org/2000/svg">
<g clip-path="url(#clip0_8417_367)">
<path d="M14.5602 7.04003C14.2802 7.00003 14.0402 7.00003 13.7602 7.00003C11.8002 7.00003 9.8802 7.80003 8.1602 9.32003C7.3602 10.04 6.6002 10.92 5.9202 11.88C5.8002 8.16003 5.6002 4.20003 5.2002 0.160034H0.200195C1.2802 11.52 1.1602 21.44 0.960195 30.16V30.2H5.9602C6.1202 21.48 8.28019 15.88 11.5202 13C12.4002 12.24 13.2402 11.88 14.0002 11.96C17.9602 12.4 17.3202 24.72 17.0402 30.2H22.0402C22.2402 26.16 22.4802 21.24 21.9202 17C21.1202 10.8 18.6002 7.48003 14.5602 7.04003Z" fill="#1D1D1B"/>
<path d="M65.6801 7.80002C64.4801 7.24002 63.2001 6.96002 61.9201 6.96002C60.6001 6.96002 59.2801 7.24002 57.9601 7.84002C54.3601 9.48002 51.3601 13.24 49.9601 17.92C47.8001 25.12 47.9201 33.76 47.9601 39.48C47.9601 39.64 47.9601 39.76 47.9601 39.92H52.9601C52.9601 39.76 52.9601 39.6 52.9601 39.44C52.9201 34.04 52.8001 25.84 54.7601 19.36C55.7201 16.08 57.7601 13.44 60.0401 12.4C61.2801 11.84 62.4801 11.84 63.5601 12.32C64.7201 12.88 65.3201 14.04 65.5601 14.96C66.2001 17.04 65.8801 19.56 64.7201 21.36C62.9201 24.28 60.4401 25.32 55.8801 25.2V30.16C60.6801 30.2 65.9201 29.08 69.0001 23.96C70.8401 20.92 71.4001 16.92 70.3601 13.48C69.6001 10.88 67.9201 8.84002 65.6801 7.80002Z" fill="#1D1D1B"/>
<path d="M35.7601 6.84003C29.3201 6.84003 24.1201 12.2 24.1201 18.8C24.1201 25.4 29.3601 30.76 35.7601 30.76C42.2001 30.76 47.4001 25.4 47.4001 18.8C47.4001 12.2 42.1601 6.84003 35.7601 6.84003ZM35.7601 25.76C32.0801 25.76 29.1201 22.64 29.1201 18.8C29.1201 14.96 32.0801 11.84 35.7601 11.84C39.4401 11.84 42.4001 14.96 42.4001 18.8C42.4001 22.64 39.4001 25.76 35.7601 25.76Z" fill="#1D1D1B"/>
<path d="M84.2002 6.84003C82.3602 6.84003 80.6802 7.52003 79.2002 8.88003C78.6402 9.40003 78.1202 10 77.6402 10.64C77.5202 9.60003 77.4002 8.52003 77.2802 7.40003H72.2402C73.4402 16.32 73.3202 23.68 73.2402 28.2C73.2402 28.88 73.2002 29.48 73.2002 30C73.2002 30.04 73.2002 30.08 73.2002 30.16H78.2002C78.2402 26.8 78.3602 24.12 79.1202 20.04C79.8802 16 82.1202 11.6 84.4002 11.84C86.2002 12 86.8002 14.16 87.0002 16.16H92.0402C91.7602 10.16 88.3602 6.84003 84.2002 6.84003Z" fill="#1D1D1B"/>
</g>
<defs>
<clipPath id="clip0_8417_367">
<rect width="92" height="40" fill="white"/>
</clipPath>
</defs>
</svg>
